<svg width="187" height="26" viewBox="0 0 187 26" fill="none" xmlns="http://www.w3.org/2000/svg">
<g clip-path="url(#clip0)">
<path d="M131.167 19.173L139.128 7.42059H133.754C133.171 7.41892 132.613 7.18485 132.201 6.76952C131.789 6.35418 131.557 5.79135 131.555 5.20398C131.559 4.61829 131.792 4.05772 132.204 3.64476C132.616 3.23179 133.173 2.99999 133.754 3L143.099 3C143.729 3.00167 144.333 3.25524 144.778 3.7051C145.223 4.15496 145.473 4.76439 145.473 5.39975V5.44395C145.475 5.93511 145.328 6.41519 145.053 6.82065L137.074 18.5668H143.337C143.92 18.5668 144.479 18.8003 144.892 19.216C145.304 19.6317 145.536 20.1955 145.536 20.7834C145.534 21.3702 145.302 21.9324 144.889 22.3467C144.477 22.761 143.919 22.9937 143.337 22.9937H133.171C132.528 22.992 131.911 22.7331 131.457 22.2738C131.003 21.8145 130.747 21.1922 130.747 20.5434C130.747 20.0544 130.893 19.5767 131.167 19.173Z" fill="#8C6CFF"/>
<path d="M53.2807 3C54.1983 2.9999 55.0915 3.29772 55.8282 3.84935C56.5648 4.40098 57.1057 5.17711 57.3708 6.06284L61.4233 19.6214C61.5414 20.0136 61.5662 20.4284 61.4956 20.8321C61.4251 21.2358 61.2611 21.6171 61.0171 21.9449C60.773 22.2728 60.4558 22.538 60.0911 22.7191C59.7263 22.9003 59.3244 22.9922 58.9178 22.9874C58.335 22.9825 57.7709 22.7798 57.3163 22.4121C56.8618 22.0443 56.5433 21.5328 56.4124 20.9602L54.6587 13.2684C54.2265 11.3739 53.6502 8.96779 53.2243 6.95327H53.099C52.6731 8.98674 52.1533 11.3739 51.7273 13.2684L49.9548 21.0297C49.827 21.5875 49.5151 22.0851 49.0701 22.4407C48.6252 22.7964 48.0736 22.9892 47.5057 22.9874C47.1145 22.9876 46.7286 22.8954 46.3791 22.7181C46.0295 22.5409 45.726 22.2836 45.4928 21.9669C45.2596 21.6501 45.1032 21.2827 45.0362 20.894C44.9692 20.5054 44.9933 20.1063 45.1068 19.7288L49.1969 6.06284C49.4616 5.17814 50.0016 4.40276 50.737 3.85123C51.4723 3.2997 52.3642 3.00126 53.2807 3ZM48.4327 14.6514H58.0723V18.7436H48.4327V14.6514Z" fill="#8C6CFF"/>
<path d="M69.4277 18.5605H71.7452V7.42059H69.4277C68.8463 7.42059 68.2887 7.18772 67.8776 6.77321C67.4664 6.3587 67.2355 5.7965 67.2355 5.21029C67.2355 4.62409 67.4664 4.06189 67.8776 3.64738C68.2887 3.23287 68.8463 3 69.4277 3H79.2802C79.8616 3 80.4192 3.23287 80.8303 3.64738C81.2415 4.06189 81.4724 4.62409 81.4724 5.21029C81.4724 5.7965 81.2415 6.3587 80.8303 6.77321C80.4192 7.18772 79.8616 7.42059 79.2802 7.42059H76.9439V18.5605H79.2614C79.5493 18.5605 79.8344 18.6176 80.1003 18.7287C80.3663 18.8398 80.608 19.0026 80.8115 19.2078C81.0151 19.4131 81.1766 19.6568 81.2868 19.9249C81.3969 20.1931 81.4536 20.4805 81.4536 20.7708C81.4536 21.3575 81.2229 21.9204 80.8119 22.3359C80.401 22.7514 79.8434 22.9857 79.2614 22.9874H69.4277C68.8457 22.9857 68.2881 22.7514 67.8772 22.3359C67.4662 21.9204 67.2355 21.3575 67.2355 20.7708C67.2355 20.1846 67.4664 19.6224 67.8776 19.2078C68.2887 18.7933 68.8463 18.5605 69.4277 18.5605Z" fill="#8C6CFF"/>
<path d="M91.613 3.00003C92.2508 3.00051 92.8732 3.19729 93.397 3.56406C93.9208 3.93083 94.3211 4.4501 94.5443 5.05244L97.1061 11.917L98.7221 16.407H98.8662C98.4768 13.88 98.2259 11.3332 98.1145 8.77836V5.52608C98.1145 4.85613 98.3785 4.21361 98.8484 3.73989C99.3182 3.26616 99.9555 3.00003 100.62 3.00003C101.284 3.00003 101.922 3.26616 102.392 3.73989C102.861 4.21361 103.125 4.85613 103.125 5.52608V19.8235C103.125 20.661 102.795 21.4641 102.208 22.0563C101.621 22.6484 100.824 22.9811 99.9936 22.9811C99.3548 22.9819 98.731 22.7857 98.2059 22.4188C97.6808 22.052 97.2796 21.532 97.056 20.9287L94.4817 14.0389L92.8657 9.58039H92.7467C93.1206 12.1068 93.3652 14.651 93.4796 17.2027V20.4677C93.4796 21.1376 93.2156 21.7801 92.7457 22.2538C92.2759 22.7276 91.6386 22.9937 90.9742 22.9937C90.3097 22.9937 89.6724 22.7276 89.2026 22.2538C88.7327 21.7801 88.4688 21.1376 88.4688 20.4677V6.15759C88.4687 5.74187 88.5502 5.33024 88.7083 4.94632C88.8665 4.5624 89.0983 4.21375 89.3904 3.92038C89.6826 3.627 90.0293 3.39468 90.4107 3.23675C90.7921 3.07881 91.2007 2.99836 91.613 3.00003Z" fill="#8C6CFF"/>
<path d="M112.113 18.5605H114.431V7.42059H112.113C111.532 7.42059 110.974 7.18772 110.563 6.77321C110.152 6.3587 109.921 5.7965 109.921 5.21029C109.923 4.6246 110.154 4.06337 110.565 3.64922C110.976 3.23507 111.533 3.00167 112.113 3L121.991 3C122.574 3 123.133 3.23353 123.546 3.64923C123.958 4.06492 124.19 4.62873 124.19 5.21661C124.186 5.8023 123.953 6.36286 123.541 6.77583C123.129 7.1888 122.572 7.4206 121.991 7.42059H119.68V18.5605H121.997C122.579 18.5605 123.136 18.7933 123.547 19.2078C123.959 19.6224 124.19 20.1846 124.19 20.7708C124.19 21.3575 123.959 21.9204 123.548 22.3359C123.137 22.7514 122.579 22.9857 121.997 22.9874H112.113C111.532 22.9857 110.974 22.7514 110.563 22.3359C110.152 21.9204 109.921 21.3575 109.921 20.7708C109.921 20.1846 110.152 19.6224 110.563 19.2078C110.974 18.7933 111.532 18.5605 112.113 18.5605Z" fill="#8C6CFF"/>
<path d="M154.392 3.00001H163.38C163.962 3.00001 164.519 3.23288 164.93 3.64739C165.342 4.0619 165.573 4.6241 165.573 5.2103C165.573 5.79651 165.342 6.35871 164.93 6.77322C164.519 7.18773 163.962 7.4206 163.38 7.4206H157.342V10.5782H162.159C162.741 10.5782 163.299 10.8108 163.711 11.2252C164.123 11.6395 164.356 12.2017 164.357 12.7885C164.356 13.3752 164.123 13.9374 163.711 14.3518C163.299 14.7661 162.741 14.9987 162.159 14.9987H157.342V18.5668H163.687C164.269 18.5668 164.826 18.7997 165.237 19.2142C165.648 19.6287 165.879 20.1909 165.879 20.7771C165.879 21.3639 165.649 21.9267 165.238 22.3422C164.827 22.7577 164.269 22.992 163.687 22.9937H154.392C154.091 22.9945 153.793 22.9353 153.515 22.8193C153.237 22.7034 152.984 22.5331 152.772 22.3182C152.559 22.1033 152.391 21.8481 152.277 21.5674C152.162 21.2866 152.104 20.9858 152.106 20.6824V5.29871C152.106 4.99631 152.165 4.69688 152.28 4.41758C152.395 4.13827 152.564 3.88458 152.776 3.67105C152.988 3.45751 153.24 3.28832 153.518 3.17317C153.795 3.05802 154.092 2.99918 154.392 3.00001Z" fill="#8C6CFF"/>
<path d="M171.692 5.52605C171.692 4.8561 171.956 4.21359 172.426 3.73986C172.896 3.26614 173.533 3 174.197 3H179.052C183.323 3 186.981 4.47774 186.981 9.45406C186.981 14.2851 183.323 16.287 179.052 16.287H176.922V20.4361C176.922 21.106 176.658 21.7485 176.188 22.2222C175.718 22.696 175.081 22.9621 174.417 22.9621H174.222C173.558 22.9621 172.921 22.696 172.451 22.2222C171.981 21.7485 171.717 21.106 171.717 20.4361L171.692 5.52605ZM178.707 12.0748C180.78 12.0748 181.876 11.1528 181.876 9.4288C181.876 7.70477 180.78 7.15535 178.707 7.15535H176.941V12.0748H178.707ZM181.664 11.3675L185.992 19.1667C186.213 19.5533 186.329 19.9922 186.327 20.4386C186.326 20.8851 186.207 21.3231 185.983 21.7082C185.759 22.0933 185.438 22.4116 185.052 22.6308C184.666 22.8499 184.23 22.9621 183.787 22.9558C183.326 22.9603 182.873 22.8365 182.477 22.5981C182.082 22.3596 181.759 22.0158 181.545 21.6044L178.131 14.8977L181.664 11.3675Z" fill="#8C6CFF"/>
</g>
<g clip-path="url(#clip1)">
<path d="M28.5249 18.826V22.0286L30.563 20.8731L29.5432 19.1167L28.5249 18.826Z" fill="#8C6CFF"/>
<path d="M5.14539 20.0669L7.30015 18.4918L7.78763 21.7064L5.14539 20.0669Z" fill="#8C6CFF"/>
<path d="M31.5664 16.5855H35.4363L34.3731 19.8046L35.4363 22.7614L29.1484 22.5396L30.7275 20.1508L31.5664 16.5855Z" fill="#BA4B00"/>
<path d="M4.15101 16.5795L0.731201 16.7219L1.65083 20.0234L0.895687 22.9293L7.26727 22.8214L4.54877 19.8046L4.15101 16.5795Z" fill="#BA4B00"/>
<path d="M7.78771 23.5482H0.51444C0.42844 23.5463 0.344395 23.5222 0.270495 23.478C0.196594 23.4339 0.13536 23.3714 0.0927575 23.2965C0.0444173 23.2162 0.0140339 23.1264 0.00370692 23.0333C-0.00662007 22.9401 0.00335553 22.8459 0.0329444 22.757L1.34584 19.8046L0.0329444 16.8508C0.00335553 16.7619 -0.00662007 16.6676 0.00370692 16.5745C0.0140339 16.4813 0.0444173 16.3915 0.0927575 16.3113C0.13536 16.2364 0.196594 16.1738 0.270495 16.1297C0.344395 16.0856 0.42844 16.0614 0.51444 16.0595H4.50995C4.65175 16.0786 4.78183 16.1485 4.87603 16.2564C4.97023 16.3643 5.02215 16.5028 5.02215 16.6462C5.02215 16.7896 4.97023 16.9281 4.87603 17.036C4.78183 17.1439 4.65175 17.2139 4.50995 17.2329H1.25463L2.02622 19.5993C2.0696 19.7322 2.0696 19.8755 2.02622 20.0084L1.25463 22.3748H7.78771C7.9295 22.3938 8.05958 22.4638 8.15378 22.5717C8.24799 22.6796 8.29991 22.8181 8.29991 22.9615C8.29991 23.1049 8.24799 23.2434 8.15378 23.3513C8.05958 23.4592 7.9295 23.5292 7.78771 23.5482Z" fill="#BA4B00"/>
<path d="M28.2123 14.375H7.78767C7.60564 14.375 7.43106 14.3026 7.30235 14.1735C7.17363 14.0445 7.10132 13.8696 7.10132 13.6871C7.10132 13.5047 7.17363 13.3297 7.30235 13.2007C7.43106 13.0717 7.60564 12.9993 7.78767 12.9993H28.2123C28.3944 12.9993 28.569 13.0717 28.6977 13.2007C28.8264 13.3297 28.8987 13.5047 28.8987 13.6871C28.8987 13.8696 28.8264 14.0445 28.6977 14.1735C28.569 14.3026 28.3944 14.375 28.2123 14.375Z" fill="#8C6CFF"/>
<path d="M4.151 20.0579L7.27324 23.5482V18.9339L4.151 20.0579Z" fill="#1A1B1F"/>
<path d="M35.4857 23.5482H28.2124C28.0706 23.5292 27.9405 23.4592 27.8463 23.3513C27.7521 23.2434 27.7002 23.1049 27.7002 22.9615C27.7002 22.8181 27.7521 22.6796 27.8463 22.5717C27.9405 22.4638 28.0706 22.3938 28.2124 22.3748H34.7455L33.9739 20.0084C33.9305 19.8755 33.9305 19.7322 33.9739 19.5993L34.7455 17.2344H31.4902C31.3484 17.2154 31.2183 17.1454 31.1241 17.0375C31.0299 16.9296 30.978 16.7911 30.978 16.6477C30.978 16.5043 31.0299 16.3658 31.1241 16.2579C31.2183 16.15 31.3484 16.08 31.4902 16.061H35.4857C35.5718 16.063 35.656 16.0873 35.7301 16.1314C35.8042 16.1755 35.8658 16.2379 35.9089 16.3127C35.9565 16.3933 35.9864 16.483 35.9967 16.576C36.007 16.6691 35.9975 16.7632 35.9687 16.8523L34.6483 19.8061L35.9687 22.7584C35.9975 22.8475 36.007 22.9416 35.9967 23.0346C35.9864 23.1277 35.9565 23.2174 35.9089 23.2979C35.8656 23.3725 35.804 23.4346 35.7299 23.4785C35.6558 23.5223 35.5717 23.5463 35.4857 23.5482Z" fill="#BA4B00"/>
<path d="M31.5603 20.3651L28.7267 23.5482V18.9339L31.5603 20.3651Z" fill="#1A1B1F"/>
<path d="M18.0934 0C18.0227 0.00456324 17.9537 0.0236855 17.8906 0.0561739C17.8276 0.0886624 17.7719 0.13382 17.7271 0.188829L7.38539 13.1761C7.31249 13.2676 7.27292 13.3812 7.27324 13.4983V19.0897V23.6291V25.483C7.27218 25.5631 7.29006 25.6423 7.3254 25.7142C7.36074 25.7861 7.41256 25.8486 7.4766 25.8966L18.0934 15.2427V0Z" fill="url(#paint0_linear)"/>
<path d="M18.1143 15.2427L7.47656 25.898C7.56326 25.9623 7.66779 25.998 7.77563 26H28.2123C28.2943 25.9998 28.3751 25.98 28.4479 25.9422C28.5208 25.9044 28.5835 25.8497 28.631 25.7826L18.1143 15.2427ZM27.6979 24.9689H27.5139L27.6934 24.9599L27.6979 24.9689Z" fill="url(#paint1_linear)"/>
<path d="M7.47656 25.8981L18.1083 15.2427L28.631 25.7767C28.6934 25.6893 28.7269 25.5845 28.7267 25.477V23.6306V20.2647V13.4983C28.7268 13.4476 28.7197 13.3972 28.7057 13.3484C28.7294 13.2689 28.7335 13.1848 28.7176 13.1034C28.7017 13.0219 28.6663 12.9456 28.6145 12.8809L18.53 0.194824C18.482 0.134048 18.4208 0.0849519 18.3512 0.0512129C18.2815 0.017474 18.2051 -3.39893e-05 18.1278 4.95383e-08H18.0934V15.2427" fill="url(#paint2_linear)"/>
<path d="M4.54883 12.9168C4.54883 12.9168 17.7705 5.03542 31.3062 13.1041V19.917C17.7705 11.8483 4.54883 19.7311 4.54883 19.7311V12.9168Z" fill="#FF7517"/>
<path d="M31.3061 20.4325C31.214 20.4324 31.1237 20.4076 31.0444 20.3606C17.9214 12.5391 4.93453 20.0968 4.81191 20.1747C4.73334 20.2216 4.64372 20.2467 4.55227 20.2473C4.46082 20.248 4.37085 20.2242 4.29164 20.1784C4.21243 20.1326 4.14683 20.0664 4.1016 19.9868C4.05638 19.9071 4.03316 19.8168 4.03434 19.7252V12.9168C4.03319 12.8264 4.05579 12.7372 4.09988 12.6583C4.14398 12.5794 4.20801 12.5135 4.28556 12.4672C4.42014 12.3863 17.9289 4.52439 31.5693 12.653C31.6473 12.6989 31.7118 12.7647 31.7562 12.8436C31.8006 12.9226 31.8233 13.012 31.822 13.1026V19.917C31.822 19.9848 31.8087 20.052 31.7827 20.1146C31.7568 20.1773 31.7187 20.2342 31.6708 20.282C31.6229 20.3299 31.566 20.3679 31.5034 20.3937C31.4408 20.4195 31.3738 20.4327 31.3061 20.4325ZM18.216 15.7867C22.6158 15.7743 26.9453 16.8919 30.7917 19.0328V13.3979C18.7648 6.40819 6.92332 12.2199 5.06313 13.221V18.8829C6.92182 17.9508 11.9357 15.7927 18.216 15.7927V15.7867Z" fill="#FF7517"/>
</g>
<defs>
<linearGradient id="paint0_linear" x1="8.47399" y1="5.50752" x2="17.0647" y2="20.3531" gradientUnits="userSpaceOnUse">
<stop stop-color="white"/>
<stop offset="0.13" stop-color="#F6F3FF"/>
<stop offset="0.43" stop-color="#E5DEFF"/>
<stop offset="0.72" stop-color="#DBD1FF"/>
<stop offset="1" stop-color="#D8CDFF"/>
</linearGradient>
<linearGradient id="paint1_linear" x1="7.48254" y1="20.6213" x2="28.631" y2="20.6213" gradientUnits="userSpaceOnUse">
<stop stop-color="#8C6CFF"/>
<stop offset="0.2" stop-color="#9E83FF"/>
<stop offset="0.47" stop-color="#B19BFF"/>
<stop offset="0.71" stop-color="#BCA9FF"/>
<stop offset="0.92" stop-color="#C0AEFF"/>
</linearGradient>
<linearGradient id="paint2_linear" x1="27.659" y1="5.43559" x2="13.7287" y2="29.5116" gradientUnits="userSpaceOnUse">
<stop stop-color="#5E58A6"/>
<stop offset="0.04" stop-color="#625AAD"/>
<stop offset="0.28" stop-color="#7462D1"/>
<stop offset="0.51" stop-color="#8167EA"/>
<stop offset="0.71" stop-color="#896BFA"/>
<stop offset="0.87" stop-color="#8C6CFF"/>
</linearGradient>
<clipPath id="clip0">
<rect width="142" height="20" fill="white" transform="translate(45 3)"/>
</clipPath>
<clipPath id="clip1">
<rect width="36" height="26" fill="white"/>
</clipPath>
</defs>
</svg>
